<?xml version="1.0" standalone="no"?>
<!DOCTYPE svg PUBLIC "-//W3C//DTD SVG 20010904//EN"
 "http://www.w3.org/TR/2001/REC-SVG-20010904/DTD/svg10.dtd">
<svg version="1.0" xmlns="http://www.w3.org/2000/svg"
 width="327.000000pt" height="59.000000pt" viewBox="0 0 327.000000 59.000000"
 preserveAspectRatio="xMidYMid meet">
<metadata>
Created by potrace 1.15, written by Peter Selinger 2001-2017
</metadata>
<g transform="translate(0.000000,59.000000) scale(0.100000,-0.100000)"
fill="#000000" stroke="none">
<path d="M762 572 c-10 -10 -48 -70 -83 -132 -38 -66 -73 -117 -87 -123 -12
-6 -24 -8 -26 -6 -5 5 20 158 29 182 7 18 -2 21 -29 11 -9 -3 -39 -37 -67 -75
-28 -38 -57 -69 -64 -69 -23 0 -65 -41 -65 -65 0 -21 -17 -35 -41 -35 -20 0
-7 53 30 124 39 75 39 93 1 81 -18 -6 -90 -114 -90 -134 0 -14 -70 -72 -80
-66 -12 7 2 43 46 123 31 54 33 62 16 62 -10 0 -23 -5 -29 -11 -8 -8 -17 -5
-32 10 -27 27 -50 27 -92 -2 -87 -59 -119 -189 -53 -219 21 -10 29 -8 56 12
28 21 32 21 43 6 19 -25 58 -19 91 15 l29 30 5 -27 c8 -41 34 -53 71 -32 27
16 32 16 45 3 28 -28 104 -15 141 23 10 11 28 23 41 27 22 6 23 5 17 -28 -10
-52 8 -52 51 1 56 69 136 152 146 152 4 0 -4 -19 -18 -42 -32 -50 -44 -126
-23 -139 30 -19 62 -9 101 31 l38 41 0 -29 c0 -59 41 -68 96 -20 31 27 36 29
30 12 -4 -14 -1 -26 9 -34 18 -15 17 -17 45 40 40 79 136 189 168 190 36 1
-15 -74 -63 -91 -26 -10 -35 -19 -40 -46 -16 -85 43 -139 104 -97 l23 16 -22
-42 c-12 -23 -20 -51 -18 -62 6 -45 28 -27 64 52 31 68 40 79 49 66 31 -42
108 -38 158 8 l25 24 7 -27 c12 -49 62 -56 94 -13 l21 27 -14 -40 c-13 -40
-13 -40 -60 -37 -87 7 -136 -34 -136 -111 0 -70 86 -106 147 -61 16 11 37 37
48 57 16 29 24 35 43 30 27 -6 78 13 86 33 4 10 -3 14 -27 14 -56 0 -63 11
-42 67 10 26 37 87 61 135 28 56 39 90 33 94 -19 11 -63 -31 -97 -92 -33 -59
-79 -114 -94 -114 -20 0 -4 61 32 124 22 37 40 70 40 72 0 2 -10 4 -23 4 -27
0 -54 -27 -90 -90 -27 -46 -83 -107 -91 -99 -3 3 8 31 24 63 32 62 38 104 18
124 -18 18 -42 15 -72 -9 l-27 -21 7 26 c5 21 3 26 -12 26 -14 0 -29 -22 -54
-76 -40 -86 -88 -144 -119 -144 -22 0 -25 4 -35 51 -5 22 0 28 39 47 54 26 82
73 66 108 -6 13 -17 24 -25 24 -25 0 -70 -20 -93 -42 -32 -30 -29 -19 14 52
28 47 34 66 27 78 -6 9 -15 17 -20 19 -5 1 -43 -57 -84 -129 -78 -136 -126
-198 -154 -198 -27 0 -19 43 23 124 22 42 35 79 30 82 -22 13 -52 -12 -90 -79
-45 -78 -73 -113 -103 -129 -48 -26 -30 42 41 156 20 31 22 40 11 47 -28 18
-53 4 -131 -70 l-49 -46 62 102 c33 56 65 105 71 108 5 4 9 13 9 21 0 20 -37
17 -58 -4z"/>
<path d="M1863 462 c-13 -9 -99 -160 -107 -188 -4 -14 0 -26 10 -35 15 -12 19
-11 35 11 91 126 111 150 128 159 18 10 16 4 -9 -45 -56 -105 -30 -180 47
-139 18 10 40 29 49 42 l16 25 16 -33 c24 -47 60 -58 112 -34 41 19 120 97
120 119 -1 6 -15 -6 -32 -27 -53 -65 -126 -88 -148 -47 -16 30 -3 60 26 60 69
0 145 78 113 116 -10 12 -25 15 -62 11 -58 -5 -95 -36 -131 -112 -36 -76 -106
-125 -106 -75 0 12 19 55 41 96 34 62 39 78 28 85 -29 18 -60 8 -104 -34 -49
-48 -55 -48 -25 -2 11 17 20 33 20 36 0 11 -26 18 -37 11z"/>
</g>
</svg>
